<svg xmlns="http://www.w3.org/2000/svg" xmlns:xlink="http://www.w3.org/1999/xlink" width="1563" zoomAndPan="magnify" viewBox="0 0 1172.25 1172.249948" height="1563" preserveAspectRatio="xMidYMid meet" version="1.0"><defs><g/><clipPath id="01013eea9c"><path d="M 560 284 L 753 284 L 753 456 L 560 456 Z M 560 284 " clip-rule="nonzero"/></clipPath><clipPath id="ef50a4adc6"><path d="M 523.417969 362.273438 L 692.402344 219.769531 L 807.761719 356.570312 L 638.773438 499.070312 Z M 523.417969 362.273438 " clip-rule="nonzero"/></clipPath><clipPath id="b180c835f4"><path d="M 741.507812 284.609375 L 618.371094 284.140625 C 616.074219 284.132812 613.984375 285.457031 613.011719 287.539062 C 612.039062 289.621094 612.363281 292.078125 613.84375 293.832031 L 633.921875 317.640625 C 638.457031 323.019531 637.773438 331.058594 632.394531 335.59375 L 565.300781 392.171875 C 559.917969 396.710938 559.234375 404.75 563.773438 410.128906 L 598.421875 451.214844 C 602.957031 456.59375 610.996094 457.277344 616.375 452.742188 L 683.46875 396.164062 C 688.847656 391.625 696.886719 392.308594 701.425781 397.6875 L 721.5 421.496094 C 722.980469 423.25 725.347656 423.988281 727.5625 423.378906 C 729.777344 422.773438 731.4375 420.933594 731.816406 418.667969 L 752.144531 297.222656 C 752.667969 294.089844 751.789062 290.886719 749.742188 288.457031 C 747.695312 286.027344 744.683594 284.621094 741.507812 284.609375 Z M 741.507812 284.609375 " clip-rule="nonzero"/></clipPath><clipPath id="a39d6d7365"><path d="M 0 0 L 192.878906 0 L 192.878906 172 L 0 172 Z M 0 0 " clip-rule="nonzero"/></clipPath><clipPath id="e4c77381ef"><path d="M -36.582031 78.273438 L 132.402344 -64.230469 L 247.761719 72.570312 L 78.773438 215.070312 Z M -36.582031 78.273438 " clip-rule="nonzero"/></clipPath><clipPath id="a217a3262e"><path d="M 181.507812 0.609375 L 58.371094 0.140625 C 56.074219 0.132812 53.984375 1.457031 53.011719 3.539062 C 52.039062 5.621094 52.363281 8.078125 53.84375 9.832031 L 73.921875 33.640625 C 78.457031 39.019531 77.773438 47.058594 72.394531 51.59375 L 5.300781 108.171875 C -0.0820312 112.710938 -0.765625 120.75 3.773438 126.128906 L 38.421875 167.214844 C 42.957031 172.59375 50.996094 173.277344 56.375 168.742188 L 123.46875 112.164062 C 128.847656 107.625 136.886719 108.308594 141.425781 113.6875 L 161.5 137.496094 C 162.980469 139.25 165.347656 139.988281 167.5625 139.378906 C 169.777344 138.773438 171.4375 136.933594 171.816406 134.667969 L 192.144531 13.222656 C 192.667969 10.089844 191.789062 6.886719 189.742188 4.457031 C 187.695312 2.027344 184.683594 0.621094 181.507812 0.609375 Z M 181.507812 0.609375 " clip-rule="nonzero"/></clipPath><clipPath id="d97714fbfd"><rect x="0" width="193" y="0" height="172"/></clipPath><clipPath id="b0c0b44088"><path d="M 560 284 L 753 284 L 753 456 L 560 456 Z M 560 284 " clip-rule="nonzero"/></clipPath><clipPath id="06d3d2ac72"><path d="M 519.054688 357.101562 L 692.097656 211.179688 L 816.273438 358.433594 L 643.234375 504.355469 Z M 519.054688 357.101562 " clip-rule="nonzero"/></clipPath><clipPath id="14d069b12c"><path d="M 521.335938 359.804688 L 691.78125 216.074219 L 810.414062 356.757812 L 639.972656 500.488281 Z M 521.335938 359.804688 " clip-rule="nonzero"/></clipPath><clipPath id="042869b5cc"><path d="M 741.503906 284.609375 L 618.371094 284.140625 C 616.074219 284.132812 613.980469 285.460938 613.007812 287.539062 C 612.039062 289.621094 612.363281 292.078125 613.84375 293.835938 L 633.917969 317.640625 C 638.453125 323.019531 637.769531 331.058594 632.390625 335.59375 L 565.300781 392.171875 C 559.917969 396.707031 559.234375 404.746094 563.773438 410.125 L 598.417969 451.210938 C 602.957031 456.59375 610.992188 457.277344 616.375 452.738281 L 683.464844 396.160156 C 688.847656 391.625 696.882812 392.308594 701.421875 397.6875 L 721.496094 421.492188 C 722.976562 423.25 725.34375 423.984375 727.558594 423.378906 C 729.773438 422.773438 731.433594 420.933594 731.8125 418.667969 L 752.140625 297.226562 C 752.664062 294.089844 751.785156 290.886719 749.738281 288.457031 C 747.691406 286.027344 744.679688 284.621094 741.503906 284.609375 Z M 741.503906 284.609375 " clip-rule="nonzero"/></clipPath><clipPath id="b592aec663"><path d="M 505.152344 719.265625 L 547.363281 719.265625 L 547.363281 761.476562 L 505.152344 761.476562 Z M 505.152344 719.265625 " clip-rule="nonzero"/></clipPath><clipPath id="cff1547f9a"><path d="M 526.257812 719.265625 C 514.601562 719.265625 505.152344 728.714844 505.152344 740.371094 C 505.152344 752.027344 514.601562 761.476562 526.257812 761.476562 C 537.914062 761.476562 547.363281 752.027344 547.363281 740.371094 C 547.363281 728.714844 537.914062 719.265625 526.257812 719.265625 Z M 526.257812 719.265625 " clip-rule="nonzero"/></clipPath><clipPath id="46defcaf1e"><path d="M 0.152344 0.265625 L 42.363281 0.265625 L 42.363281 42.476562 L 0.152344 42.476562 Z M 0.152344 0.265625 " clip-rule="nonzero"/></clipPath><clipPath id="699cdeb967"><path d="M 21.257812 0.265625 C 9.601562 0.265625 0.152344 9.714844 0.152344 21.371094 C 0.152344 33.027344 9.601562 42.476562 21.257812 42.476562 C 32.914062 42.476562 42.363281 33.027344 42.363281 21.371094 C 42.363281 9.714844 32.914062 0.265625 21.257812 0.265625 Z M 21.257812 0.265625 " clip-rule="nonzero"/></clipPath><clipPath id="3af7267724"><rect x="0" width="43" y="0" height="43"/></clipPath><clipPath id="c90b819ba4"><path d="M 314.613281 677.058594 L 356.820312 677.058594 L 356.820312 719.265625 L 314.613281 719.265625 Z M 314.613281 677.058594 " clip-rule="nonzero"/></clipPath><clipPath id="f91f7ec02e"><path d="M 335.714844 677.058594 C 324.0625 677.058594 314.613281 686.507812 314.613281 698.164062 C 314.613281 709.816406 324.0625 719.265625 335.714844 719.265625 C 347.371094 719.265625 356.820312 709.816406 356.820312 698.164062 C 356.820312 686.507812 347.371094 677.058594 335.714844 677.058594 Z M 335.714844 677.058594 " clip-rule="nonzero"/></clipPath><clipPath id="727f376367"><path d="M 0.613281 0.0585938 L 42.820312 0.0585938 L 42.820312 42.265625 L 0.613281 42.265625 Z M 0.613281 0.0585938 " clip-rule="nonzero"/></clipPath><clipPath id="453733c750"><path d="M 21.714844 0.0585938 C 10.0625 0.0585938 0.613281 9.507812 0.613281 21.164062 C 0.613281 32.816406 10.0625 42.265625 21.714844 42.265625 C 33.371094 42.265625 42.820312 32.816406 42.820312 21.164062 C 42.820312 9.507812 33.371094 0.0585938 21.714844 0.0585938 Z M 21.714844 0.0585938 " clip-rule="nonzero"/></clipPath><clipPath id="abc191edf2"><rect x="0" width="43" y="0" height="43"/></clipPath><clipPath id="e4a0210f87"><path d="M 314.613281 421.222656 L 356.820312 421.222656 L 356.820312 463.433594 L 314.613281 463.433594 Z M 314.613281 421.222656 " clip-rule="nonzero"/></clipPath><clipPath id="70cc07c5ec"><path d="M 335.714844 421.222656 C 324.0625 421.222656 314.613281 430.671875 314.613281 442.328125 C 314.613281 453.984375 324.0625 463.433594 335.714844 463.433594 C 347.371094 463.433594 356.820312 453.984375 356.820312 442.328125 C 356.820312 430.671875 347.371094 421.222656 335.714844 421.222656 Z M 335.714844 421.222656 " clip-rule="nonzero"/></clipPath><clipPath id="b6f606a8d0"><path d="M 0.613281 0.222656 L 42.820312 0.222656 L 42.820312 42.433594 L 0.613281 42.433594 Z M 0.613281 0.222656 " clip-rule="nonzero"/></clipPath><clipPath id="531a703142"><path d="M 21.714844 0.222656 C 10.0625 0.222656 0.613281 9.671875 0.613281 21.328125 C 0.613281 32.984375 10.0625 42.433594 21.714844 42.433594 C 33.371094 42.433594 42.820312 32.984375 42.820312 21.328125 C 42.820312 9.671875 33.371094 0.222656 21.714844 0.222656 Z M 21.714844 0.222656 " clip-rule="nonzero"/></clipPath><clipPath id="f74c391004"><rect x="0" width="43" y="0" height="43"/></clipPath><clipPath id="52bd28bbde"><path d="M 499.449219 359.164062 L 541.65625 359.164062 L 541.65625 401.375 L 499.449219 401.375 Z M 499.449219 359.164062 " clip-rule="nonzero"/></clipPath><clipPath id="4ae241935d"><path d="M 520.554688 359.164062 C 508.898438 359.164062 499.449219 368.613281 499.449219 380.269531 C 499.449219 391.925781 508.898438 401.375 520.554688 401.375 C 532.207031 401.375 541.65625 391.925781 541.65625 380.269531 C 541.65625 368.613281 532.207031 359.164062 520.554688 359.164062 Z M 520.554688 359.164062 " clip-rule="nonzero"/></clipPath><clipPath id="f52e5864a4"><path d="M 0.449219 0.164062 L 42.65625 0.164062 L 42.65625 42.375 L 0.449219 42.375 Z M 0.449219 0.164062 " clip-rule="nonzero"/></clipPath><clipPath id="cead847cf8"><path d="M 21.554688 0.164062 C 9.898438 0.164062 0.449219 9.613281 0.449219 21.269531 C 0.449219 32.925781 9.898438 42.375 21.554688 42.375 C 33.207031 42.375 42.65625 32.925781 42.65625 21.269531 C 42.65625 9.613281 33.207031 0.164062 21.554688 0.164062 Z M 21.554688 0.164062 " clip-rule="nonzero"/></clipPath><clipPath id="f11ddb0890"><rect x="0" width="43" y="0" height="43"/></clipPath><clipPath id="d5204115ae"><path d="M 608 345 L 677 345 L 677 416 L 608 416 Z M 608 345 " clip-rule="nonzero"/></clipPath><clipPath id="b244b753c7"><path d="M 645.136719 332.667969 L 689.074219 389.59375 L 639.335938 427.980469 L 595.402344 371.054688 Z M 645.136719 332.667969 " clip-rule="nonzero"/></clipPath><clipPath id="d4a5648bad"><path d="M 664.332031 357.535156 L 669.796875 364.617188 C 674.886719 371.210938 677.148438 379.558594 676.085938 387.820312 C 675.019531 396.085938 670.71875 403.585938 664.121094 408.675781 C 657.527344 413.769531 649.179688 416.03125 640.914062 414.964844 C 632.652344 413.902344 625.152344 409.597656 620.058594 403.003906 L 614.59375 395.921875 C 609.503906 389.328125 607.242188 380.980469 608.308594 372.71875 C 609.371094 364.453125 613.675781 356.953125 620.269531 351.859375 C 626.863281 346.769531 635.210938 344.507812 643.476562 345.574219 C 651.738281 346.636719 659.242188 350.941406 664.332031 357.535156 Z M 664.332031 357.535156 " clip-rule="nonzero"/></clipPath><clipPath id="9cab77e806"><path d="M 0 0 L 69 0 L 69 71 L 0 71 Z M 0 0 " clip-rule="nonzero"/></clipPath><clipPath id="b95fa31c4b"><path d="M 37.136719 -12.332031 L 81.074219 44.59375 L 31.335938 82.980469 L -12.597656 26.054688 Z M 37.136719 -12.332031 " clip-rule="nonzero"/></clipPath><clipPath id="6cfb694426"><path d="M 56.332031 12.535156 L 61.796875 19.617188 C 66.886719 26.210938 69.148438 34.558594 68.085938 42.820312 C 67.019531 51.085938 62.71875 58.585938 56.121094 63.675781 C 49.527344 68.769531 41.179688 71.03125 32.914062 69.964844 C 24.652344 68.902344 17.152344 64.597656 12.058594 58.003906 L 6.59375 50.921875 C 1.503906 44.328125 -0.757812 35.980469 0.308594 27.71875 C 1.371094 19.453125 5.675781 11.953125 12.269531 6.859375 C 18.863281 1.769531 27.210938 -0.492188 35.476562 0.574219 C 43.738281 1.636719 51.242188 5.941406 56.332031 12.535156 Z M 56.332031 12.535156 " clip-rule="nonzero"/></clipPath><clipPath id="ff9bd0a8e4"><rect x="0" width="69" y="0" height="71"/></clipPath><clipPath id="0e956a5c8a"><rect x="0" width="287" y="0" height="220"/></clipPath><clipPath id="b9236437d0"><path d="M 591 341 L 646 341 L 646 387 L 591 387 Z M 591 341 " clip-rule="nonzero"/></clipPath><clipPath id="f758e9740a"><path d="M 637.867188 337.617188 L 649.09375 352.160156 L 599.328125 390.566406 L 588.105469 376.023438 Z M 637.867188 337.617188 " clip-rule="nonzero"/></clipPath><clipPath id="9ed4ebe8fa"><path d="M 643.480469 344.886719 C 646.582031 348.902344 645.835938 354.671875 641.820312 357.769531 L 606.628906 384.933594 C 602.613281 388.035156 596.84375 387.289062 593.746094 383.273438 C 590.644531 379.257812 591.386719 373.492188 595.402344 370.390625 L 630.597656 343.226562 C 634.613281 340.128906 640.382812 340.871094 643.480469 344.886719 Z M 643.480469 344.886719 " clip-rule="nonzero"/></clipPath><clipPath id="76907dab23"><path d="M 0 0 L 55 0 L 55 46 L 0 46 Z M 0 0 " clip-rule="nonzero"/></clipPath><clipPath id="f7c909a0a5"><path d="M 46.867188 -3.382812 L 58.09375 11.160156 L 8.328125 49.566406 L -2.894531 35.023438 Z M 46.867188 -3.382812 " clip-rule="nonzero"/></clipPath><clipPath id="29f80d1532"><path d="M 52.480469 3.886719 C 55.582031 7.902344 54.835938 13.671875 50.820312 16.769531 L 15.628906 43.933594 C 11.613281 47.035156 5.84375 46.289062 2.746094 42.273438 C -0.355469 38.257812 0.386719 32.492188 4.402344 29.390625 L 39.597656 2.226562 C 43.613281 -0.871094 49.382812 -0.128906 52.480469 3.886719 Z M 52.480469 3.886719 " clip-rule="nonzero"/></clipPath><clipPath id="1703e0342e"><rect x="0" width="55" y="0" height="46"/></clipPath></defs><g clip-path="url(#01013eea9c)"><g clip-path="url(#ef50a4adc6)"><g clip-path="url(#b180c835f4)"><g transform="matrix(1, 0, 0, 1, 560, 284)"><g clip-path="url(#d97714fbfd)"><g clip-path="url(#a39d6d7365)"><g clip-path="url(#e4c77381ef)"><g clip-path="url(#a217a3262e)"><path fill="#6a8a7a" d="M -40.945312 73.101562 L 132.0625 -72.792969 L 256.148438 74.347656 L 83.136719 220.242188 Z M -40.945312 73.101562 " fill-opacity="1" fill-rule="nonzero"/></g></g></g></g></g></g></g></g><g clip-path="url(#b0c0b44088)"><g clip-path="url(#06d3d2ac72)"><g clip-path="url(#14d069b12c)"><g clip-path="url(#042869b5cc)"><path stroke-linecap="butt" transform="matrix(0.572986, -0.483185, 0.483185, 0.572986, 519.055492, 357.099194)" fill="none" stroke-linejoin="miter" d="M 289.233539 117.391093 L 164.047874 11.007058 C 161.711905 9.023559 158.434079 8.57735 155.654637 9.860349 C 152.875819 11.150692 151.093224 13.93559 151.091336 17.001808 L 151.091661 58.547045 C 151.090905 67.933905 143.479318 75.54536 134.092457 75.544604 L 17.00186 75.547594 C 7.611016 75.543478 -0.000571724 83.154933 0.00265627 92.545153 L 0.000395797 164.248189 C 0.000264041 173.642393 7.607735 181.250621 17.001939 181.250753 L 134.092536 181.247763 C 143.483381 181.251879 151.090851 188.860107 151.094079 198.250327 L 151.094405 239.795564 C 151.092517 242.861782 152.875288 245.646811 155.65507 246.934242 C 158.434852 248.221673 161.710563 247.773024 164.04568 245.788104 L 289.230437 139.408535 C 292.462192 136.659457 294.320747 132.636499 294.322807 128.397841 C 294.324867 124.159184 292.462585 120.13452 289.233539 117.391093 Z M 289.233539 117.391093 " stroke="#000000" stroke-width="10" stroke-opacity="1" stroke-miterlimit="4"/></g></g></g></g><g fill="#1b2e24" fill-opacity="1"><g transform="translate(214.573207, 781.29729)"><g><path d="M 267.335938 12.871094 C 220.839844 12.871094 178.769531 2.75 141.121094 -17.488281 C 103.398438 -37.765625 73.742188 -65.902344 52.144531 -101.894531 C 30.546875 -137.894531 19.746094 -178.542969 19.746094 -223.84375 C 19.746094 -269.148438 30.546875 -309.796875 52.144531 -345.796875 C 73.742188 -381.789062 103.398438 -409.925781 141.121094 -430.203125 C 178.769531 -450.441406 221.054688 -460.5625 267.976562 -460.5625 C 307.496094 -460.5625 343.257812 -453.597656 375.257812 -439.664062 C 407.347656 -425.691406 434.316406 -405.601562 456.160156 -379.386719 L 459.320312 -375.59375 L 385.238281 -307.207031 L 381.726562 -311.261719 C 352.488281 -345.027344 316.277344 -361.910156 273.089844 -361.910156 C 246.28125 -361.910156 222.394531 -356.054688 201.4375 -344.34375 C 180.546875 -332.667969 164.265625 -316.386719 152.59375 -295.5 C 140.882812 -274.542969 135.027344 -250.65625 135.027344 -223.84375 C 135.027344 -197.035156 140.882812 -173.148438 152.59375 -152.191406 C 164.265625 -131.300781 180.546875 -115.019531 201.4375 -103.347656 C 222.394531 -91.636719 246.28125 -85.78125 273.089844 -85.78125 C 316.265625 -85.78125 352.46875 -102.867188 381.703125 -137.046875 L 385.210938 -141.144531 L 459.292969 -72.765625 L 456.1875 -68.976562 C 434.335938 -42.316406 407.246094 -22 374.925781 -8.023438 C 342.714844 5.90625 306.851562 12.871094 267.335938 12.871094 Z M 267.335938 2.476562 C 305.417969 2.476562 339.90625 -4.203125 370.800781 -17.5625 C 401.578125 -30.871094 427.363281 -50.207031 448.148438 -75.5625 L 452.167969 -72.269531 L 448.644531 -68.453125 L 382.128906 -129.847656 L 385.652344 -133.667969 L 389.601562 -130.289062 C 358.292969 -93.6875 319.457031 -75.386719 273.089844 -75.386719 C 244.476562 -75.386719 218.898438 -81.683594 196.367188 -94.277344 C 173.765625 -106.90625 156.152344 -124.519531 143.523438 -147.121094 C 130.929688 -169.65625 124.632812 -195.230469 124.632812 -223.84375 C 124.632812 -252.460938 130.929688 -278.035156 143.523438 -300.570312 C 156.152344 -323.171875 173.765625 -340.785156 196.367188 -353.414062 C 218.898438 -366.007812 244.476562 -372.304688 273.089844 -372.304688 C 319.441406 -372.304688 358.273438 -354.222656 389.582031 -318.0625 L 385.652344 -314.664062 L 382.128906 -318.480469 L 448.644531 -379.878906 L 452.167969 -376.058594 L 448.175781 -372.734375 C 427.382812 -397.683594 401.695312 -416.820312 371.109375 -430.136719 C 340.429688 -443.492188 306.054688 -450.167969 267.976562 -450.167969 C 222.796875 -450.167969 182.152344 -440.460938 146.042969 -421.050781 C 110 -401.675781 81.671875 -374.808594 61.058594 -340.449219 C 40.445312 -306.097656 30.140625 -267.230469 30.140625 -223.84375 C 30.140625 -180.460938 40.445312 -141.59375 61.058594 -107.242188 C 81.671875 -72.882812 110 -46.015625 146.042969 -26.640625 C 182.15625 -7.226562 222.585938 2.476562 267.335938 2.476562 Z M 267.335938 2.476562 "/></g></g></g><g fill="#6a8a7a" fill-opacity="1"><g transform="translate(214.573207, 781.29729)"><g><path d="M 267.34375 7.671875 C 221.71875 7.671875 180.460938 -2.238281 143.578125 -22.0625 C 106.703125 -41.882812 77.707031 -69.382812 56.59375 -104.5625 C 35.488281 -139.738281 24.9375 -179.5 24.9375 -223.84375 C 24.9375 -268.1875 35.488281 -307.945312 56.59375 -343.125 C 77.707031 -378.300781 106.703125 -405.800781 143.578125 -425.625 C 180.460938 -445.457031 221.929688 -455.375 267.984375 -455.375 C 306.773438 -455.375 341.835938 -448.550781 373.171875 -434.90625 C 404.515625 -421.257812 430.847656 -401.644531 452.171875 -376.0625 L 385.65625 -314.671875 C 355.382812 -349.628906 317.863281 -367.109375 273.09375 -367.109375 C 245.375 -367.109375 220.640625 -361.03125 198.890625 -348.875 C 177.148438 -336.726562 160.203125 -319.78125 148.046875 -298.03125 C 135.898438 -276.289062 129.828125 -251.5625 129.828125 -223.84375 C 129.828125 -196.132812 135.898438 -171.40625 148.046875 -149.65625 C 160.203125 -127.914062 177.148438 -110.96875 198.890625 -98.8125 C 220.640625 -86.65625 245.375 -80.578125 273.09375 -80.578125 C 317.863281 -80.578125 355.382812 -98.273438 385.65625 -133.671875 L 452.171875 -72.265625 C 430.847656 -46.253906 404.410156 -26.425781 372.859375 -12.78125 C 341.304688 0.851562 306.132812 7.671875 267.34375 7.671875 Z M 267.34375 7.671875 "/></g></g></g><g clip-path="url(#b592aec663)"><g clip-path="url(#cff1547f9a)"><g transform="matrix(1, 0, 0, 1, 505, 719)"><g clip-path="url(#3af7267724)"><g clip-path="url(#46defcaf1e)"><g clip-path="url(#699cdeb967)"><path fill="#b4b4b4" d="M 0.152344 0.265625 L 42.363281 0.265625 L 42.363281 42.476562 L 0.152344 42.476562 Z M 0.152344 0.265625 " fill-opacity="1" fill-rule="nonzero"/></g></g></g></g></g></g><g clip-path="url(#c90b819ba4)"><g clip-path="url(#f91f7ec02e)"><g transform="matrix(1, 0, 0, 1, 314, 677)"><g clip-path="url(#abc191edf2)"><g clip-path="url(#727f376367)"><g clip-path="url(#453733c750)"><path fill="#ffbd59" d="M 0.613281 0.0585938 L 42.820312 0.0585938 L 42.820312 42.265625 L 0.613281 42.265625 Z M 0.613281 0.0585938 " fill-opacity="1" fill-rule="nonzero"/></g></g></g></g></g></g><g clip-path="url(#e4a0210f87)"><g clip-path="url(#70cc07c5ec)"><g transform="matrix(1, 0, 0, 1, 314, 421)"><g clip-path="url(#f74c391004)"><g clip-path="url(#b6f606a8d0)"><g clip-path="url(#531a703142)"><path fill="#ff3131" d="M 0.613281 0.222656 L 42.820312 0.222656 L 42.820312 42.433594 L 0.613281 42.433594 Z M 0.613281 0.222656 " fill-opacity="1" fill-rule="nonzero"/></g></g></g></g></g></g><g clip-path="url(#52bd28bbde)"><g clip-path="url(#4ae241935d)"><g transform="matrix(1, 0, 0, 1, 499, 359)"><g clip-path="url(#f11ddb0890)"><g clip-path="url(#f52e5864a4)"><g clip-path="url(#cead847cf8)"><path fill="#7ed957" d="M 0.449219 0.164062 L 42.65625 0.164062 L 42.65625 42.375 L 0.449219 42.375 Z M 0.449219 0.164062 " fill-opacity="1" fill-rule="nonzero"/></g></g></g></g></g></g><g clip-path="url(#d5204115ae)"><g clip-path="url(#b244b753c7)"><g clip-path="url(#d4a5648bad)"><g transform="matrix(1, 0, 0, 1, 608, 345)"><g clip-path="url(#ff9bd0a8e4)"><g clip-path="url(#9cab77e806)"><g clip-path="url(#b95fa31c4b)"><g clip-path="url(#6cfb694426)"><path fill="#6a8a7a" d="M 37.136719 -12.332031 L 80.921875 44.398438 L 31.1875 82.785156 L -12.597656 26.054688 Z M 37.136719 -12.332031 " fill-opacity="1" fill-rule="nonzero"/></g></g></g></g></g></g></g></g><g transform="matrix(1, 0, 0, 1, 499, 425)"><g clip-path="url(#0e956a5c8a)"><g fill="#000000" fill-opacity="1"><g transform="translate(0.448973, 174.93013)"><g><path d="M 9.546875 -40.328125 C 6.492188 -42.484375 4.96875 -45.410156 4.96875 -49.109375 C 4.96875 -50.003906 5.0625 -50.832031 5.25 -51.59375 C 5.445312 -52.351562 5.734375 -53.117188 6.109375 -53.890625 C 7.003906 -55.546875 8.148438 -56.882812 9.546875 -57.90625 L 9.75 -58.09375 L 9.9375 -58.09375 L 85.03125 -97.453125 C 85.664062 -97.835938 86.332031 -98.125 87.03125 -98.3125 C 87.738281 -98.507812 88.472656 -98.609375 89.234375 -98.609375 C 91.660156 -98.609375 93.765625 -97.78125 95.546875 -96.125 C 96.816406 -94.71875 97.707031 -93.0625 98.21875 -91.15625 C 98.476562 -90.382812 98.609375 -89.425781 98.609375 -88.28125 C 98.609375 -83.945312 96.632812 -80.703125 92.6875 -78.546875 L 36.3125 -49.296875 L 92.6875 -19.875 C 96.632812 -17.707031 98.609375 -14.457031 98.609375 -10.125 C 98.609375 -8.976562 98.476562 -8.023438 98.21875 -7.265625 C 97.707031 -5.347656 96.816406 -3.691406 95.546875 -2.296875 C 93.765625 -0.640625 91.660156 0.1875 89.234375 0.1875 C 87.835938 0.1875 86.4375 -0.191406 85.03125 -0.953125 L 9.9375 -40.125 L 9.75 -40.328125 Z M 9.546875 -40.328125 "/></g></g></g><g fill="#000000" fill-opacity="1"><g transform="translate(105.545868, 174.93013)"><g><path d="M 3.0625 38.21875 C 2.164062 37.195312 1.554688 36.015625 1.234375 34.671875 C 0.921875 33.335938 0.890625 32.035156 1.140625 30.765625 L 1.34375 30.578125 L 1.34375 30.1875 L 52.9375 -132.421875 C 53.957031 -135.097656 55.613281 -137.007812 57.90625 -138.15625 C 58.925781 -138.664062 60.039062 -139.015625 61.25 -139.203125 C 62.457031 -139.398438 63.632812 -139.4375 64.78125 -139.3125 C 67.332031 -138.800781 69.4375 -137.460938 71.09375 -135.296875 C 72.875 -133.003906 73.507812 -130.519531 73 -127.84375 L 72.8125 -127.65625 L 72.8125 -127.265625 L 20.828125 35.359375 L 20.640625 35.546875 C 19.742188 37.960938 18.210938 39.742188 16.046875 40.890625 C 13.878906 42.035156 11.585938 42.421875 9.171875 42.046875 C 8.921875 41.910156 8.601562 41.8125 8.21875 41.75 C 7.832031 41.6875 7.476562 41.554688 7.15625 41.359375 C 6.84375 41.171875 6.523438 41.015625 6.203125 40.890625 C 5.890625 40.765625 5.601562 40.601562 5.34375 40.40625 C 5.09375 40.21875 4.804688 39.992188 4.484375 39.734375 C 4.171875 39.484375 3.882812 39.226562 3.625 38.96875 C 3.375 38.71875 3.1875 38.46875 3.0625 38.21875 Z M 3.0625 38.21875 "/></g></g></g><g fill="#000000" fill-opacity="1"><g transform="translate(180.833456, 174.93013)"><g><path d="M 15.859375 0.1875 C 13.441406 0.1875 11.335938 -0.640625 9.546875 -2.296875 C 8.910156 -2.929688 8.367188 -3.691406 7.921875 -4.578125 C 7.484375 -5.472656 7.132812 -6.332031 6.875 -7.15625 C 6.625 -7.988281 6.5 -8.976562 6.5 -10.125 C 6.5 -14.457031 8.472656 -17.707031 12.421875 -19.875 L 68.796875 -49.296875 L 12.421875 -78.546875 C 8.472656 -80.703125 6.5 -83.945312 6.5 -88.28125 C 6.5 -89.425781 6.625 -90.382812 6.875 -91.15625 C 7.382812 -93.0625 8.273438 -94.71875 9.546875 -96.125 C 11.335938 -97.78125 13.441406 -98.609375 15.859375 -98.609375 C 17.265625 -98.609375 18.664062 -98.222656 20.0625 -97.453125 L 95.171875 -58.09375 L 95.359375 -58.09375 L 95.546875 -57.90625 C 96.953125 -56.882812 98.097656 -55.546875 98.984375 -53.890625 C 99.367188 -53.117188 99.65625 -52.351562 99.84375 -51.59375 C 100.039062 -50.832031 100.140625 -50.003906 100.140625 -49.109375 C 100.140625 -45.410156 98.609375 -42.484375 95.546875 -40.328125 L 95.359375 -40.328125 L 95.171875 -40.125 L 20.0625 -0.953125 C 18.664062 -0.191406 17.265625 0.1875 15.859375 0.1875 Z M 15.859375 0.1875 "/></g></g></g></g></g><g clip-path="url(#b9236437d0)"><g clip-path="url(#f758e9740a)"><g clip-path="url(#9ed4ebe8fa)"><g transform="matrix(1, 0, 0, 1, 591, 341)"><g clip-path="url(#1703e0342e)"><g clip-path="url(#76907dab23)"><g clip-path="url(#f7c909a0a5)"><g clip-path="url(#29f80d1532)"><path fill="#6a8a7a" d="M 46.867188 -3.382812 L 58.09375 11.160156 L 8.328125 49.566406 L -2.894531 35.023438 Z M 46.867188 -3.382812 " fill-opacity="1" fill-rule="nonzero"/></g></g></g></g></g></g></g></g></svg>